<svg width="128" height="38" viewBox="0 0 128 38" fill="none" xmlns="http://www.w3.org/2000/svg">
<path d="M87.6376 15.5674H81.8082L81.8334 30.5322C81.8334 31.3061 81.9175 31.8781 82.0858 32.2482C82.2708 32.6015 82.5568 32.8371 82.9438 32.9548C83.3475 33.0558 83.8859 33.1062 84.5588 33.1062H87.7638V36.9925C87.4273 37.1271 86.9142 37.2449 86.2244 37.3458C85.5515 37.4636 84.643 37.5225 83.499 37.5225C81.4296 37.5225 79.8229 37.2533 78.6789 36.7149C77.5517 36.1598 76.7694 35.3775 76.332 34.368C75.8946 33.3586 75.6759 32.1557 75.6759 30.7593V15.5674H71.4363V11.2269H75.8525L77.3919 3.47951H81.8082V11.2016H87.6376V15.5674Z" fill="black"/>
<path d="M98.4681 11.2269V37.3206H92.5629V11.2269H98.4681ZM98.5438 0.854996V6.65921H92.462V0.854996H98.5438Z" fill="black"/>
<path d="M113.961 37.8253C112.682 37.8253 111.446 37.6403 110.251 37.2701C109.073 36.8832 108.014 36.328 107.071 35.6046C106.129 34.8643 105.381 33.9558 104.825 32.8791C104.27 31.8024 103.993 30.549 103.993 29.119V11.2269H110.15V28.4124C110.15 29.8256 110.596 30.9864 111.488 31.8949C112.396 32.8034 113.759 33.2577 115.576 33.2577C117.225 33.2577 118.545 32.8286 119.538 31.9706C120.531 31.0958 121.027 29.8424 121.027 28.2105V11.2269H127.134V37.3206H122.415L121.733 32.223C121.414 33.653 120.85 34.7802 120.043 35.6046C119.252 36.4121 118.318 36.9841 117.241 37.3206C116.182 37.6571 115.088 37.8253 113.961 37.8253Z" fill="black"/>
<path d="M16.3254 15.5675H10.4959L10.5211 30.5322C10.5211 31.3061 10.6053 31.8781 10.7735 32.2483C10.9586 32.6016 11.2446 32.8371 11.6315 32.9549C12.0353 33.0558 12.5736 33.1063 13.2466 33.1063H16.4515V36.9926C16.1151 37.1272 15.6019 37.2449 14.9122 37.3459C14.2392 37.4636 13.3307 37.5225 12.1867 37.5225C10.1174 37.5225 8.51069 37.2533 7.36667 36.715C6.23948 36.1598 5.45717 35.3775 5.01975 34.3681C4.58233 33.3586 4.36362 32.1557 4.36362 30.7594V15.5675H0.124023V11.2269H4.54027L6.07965 3.47955H10.4959V11.2017H16.3254V15.5675Z" fill="#E15500"/>
<path d="M24.9023 25.687C24.8855 27.1675 25.121 28.4797 25.6089 29.6238C26.0968 30.7678 26.8203 31.6678 27.7792 32.324C28.7382 32.9633 29.9242 33.2829 31.3374 33.2829C32.7843 33.2829 34.0377 32.9633 35.0976 32.324C36.1743 31.6678 36.8893 30.6752 37.2426 29.3462H42.8702C42.5673 31.1631 41.8439 32.7025 40.6999 33.9643C39.5559 35.2261 38.1679 36.185 36.536 36.8412C34.9209 37.4973 33.2385 37.8254 31.4889 37.8254C28.9653 37.8254 26.7445 37.2954 24.8266 36.2355C22.9255 35.1588 21.4366 33.6278 20.3599 31.6426C19.3 29.6574 18.7701 27.2937 18.7701 24.5514C18.7701 21.8764 19.258 19.5042 20.2337 17.4349C21.2095 15.3488 22.6143 13.7084 24.4481 12.5139C26.2987 11.3194 28.5195 10.7222 31.1103 10.7222C33.6844 10.7222 35.8462 11.269 37.5959 12.3625C39.3624 13.4561 40.6915 14.987 41.5831 16.9554C42.4916 18.907 42.9459 21.195 42.9459 23.8195V25.687H24.9023ZM24.9023 21.8764H37.1417C37.1417 20.6146 36.923 19.479 36.4855 18.4696C36.0481 17.4433 35.3752 16.6358 34.4667 16.0469C33.575 15.4413 32.4478 15.1385 31.0851 15.1385C29.7392 15.1385 28.6036 15.4665 27.6783 16.1226C26.753 16.7788 26.0548 17.6284 25.5837 18.6715C25.1126 19.6977 24.8855 20.766 24.9023 21.8764Z" fill="#E15500"/>
<path d="M69.6614 37.3206H63.1506L56.2865 28.0339L49.4476 37.3206H42.9368L52.9554 23.7438L43.7696 11.2269H50.2804L56.3117 19.3781L62.3431 11.2269H68.8791L59.6176 23.7438L69.6614 37.3206Z" fill="#E15500"/>
</svg>
